<svg width="139" height="126" viewBox="0 0 139 126" fill="none" xmlns="http://www.w3.org/2000/svg">
<path d="M35.125 90.6667C35.125 94.4866 38.203 97.5833 42 97.5833C45.797 97.5833 48.875 94.4866 48.875 90.6667V76.8333C48.875 73.0134 45.797 69.9167 42 69.9167C38.203 69.9167 35.125 73.0134 35.125 76.8333V90.6667Z" fill="#252525"/>
<path d="M69.5 97.5833C65.703 97.5833 62.625 94.4866 62.625 90.6667V35.3333C62.625 31.5134 65.703 28.4167 69.5 28.4167C73.297 28.4167 76.375 31.5134 76.375 35.3333V90.6667C76.375 94.4866 73.297 97.5833 69.5 97.5833Z" fill="#252525"/>
<path d="M90.125 90.6667C90.125 94.4866 93.203 97.5833 97 97.5833C100.797 97.5833 103.875 94.4866 103.875 90.6667V49.1667C103.875 45.3467 100.797 42.25 97 42.25C93.203 42.25 90.125 45.3467 90.125 49.1667V90.6667Z" fill="#252525"/>
<path fill-rule="evenodd" clip-rule="evenodd" d="M0.75 14.5833C0.75 6.94339 6.90608 0.75 14.5 0.75H124.5C132.094 0.75 138.25 6.94339 138.25 14.5833V111.417C138.25 119.057 132.094 125.25 124.5 125.25H14.5C6.90609 125.25 0.75 119.057 0.75 111.417V14.5833ZM14.5 14.5833H124.5V111.417H14.5V14.5833Z" fill="#252525"/>
</svg>
