<svg width="139" height="140" viewBox="0 0 139 140" fill="none" xmlns="http://www.w3.org/2000/svg">
<path d="M76.3749 74.8104C76.5117 74.7181 76.7074 74.6088 76.9897 74.4774C77.9552 74.0281 78.8513 73.7813 80.2013 73.4097C80.9667 73.1989 81.878 72.948 83.0305 72.5972C85.611 71.8119 89.3362 70.4883 92.3019 67.4065C95.5077 64.0752 96.9999 59.6139 96.9999 54.2455L96.9999 54.1768C97.0008 52.5738 97.0042 46.303 93.4592 40.2928C89.4957 33.5731 81.9369 28.5002 69.4999 28.5002C63.2695 28.5002 58.1358 29.9344 54.0176 32.4408C49.9119 34.9395 47.1961 38.2715 45.4316 41.4932C43.6886 44.6756 42.8492 47.787 42.4353 50.054C42.2257 51.2022 42.1175 52.1764 42.0614 52.8937C42.0332 53.2536 42.0179 53.5524 42.0096 53.7802C42.0054 53.8942 42.003 53.9907 42.0016 54.0686L42.0002 54.1714L42 54.2121L41.9999 54.2297L41.9999 54.2379L42 54.2455C42 58.0655 45.078 61.1622 48.8749 61.1622C52.651 61.1622 55.7161 58.0994 55.7496 54.3084L55.7497 54.2924C55.7515 54.2443 55.7569 54.1342 55.769 53.9793C55.7934 53.6669 55.8464 53.1701 55.9591 52.5531C56.1897 51.2897 56.6393 49.694 57.4744 48.1692C58.2881 46.6836 59.4395 45.3085 61.1346 44.2769C62.8171 43.2529 65.4178 42.3335 69.4999 42.3335C77.688 42.3335 80.4417 45.33 81.6344 47.3522C83.1926 49.994 83.2499 53.0399 83.2499 54.2455C83.2499 56.9262 82.5833 57.6181 82.4267 57.7807C82.0366 58.1861 81.2158 58.6971 79.0491 59.3565C78.6954 59.4642 78.2367 59.5911 77.7078 59.7375C75.9012 60.2376 73.2754 60.9644 71.2171 61.9222C67.997 63.4207 64.5657 66.0546 62.9724 70.9031C62.7422 71.6035 62.6249 72.3365 62.6249 73.0742L62.625 78.644C62.625 82.464 65.703 85.5626 69.5 85.5626C73.297 85.5626 76.375 82.466 76.375 78.646L76.3749 74.8104Z" fill="#252930"/>
<path d="M69.5 111.5C73.297 111.5 76.375 108.403 76.375 104.583C76.375 100.764 73.297 97.6668 69.5 97.6668C65.703 97.6668 62.625 100.764 62.625 104.583C62.625 108.403 65.703 111.5 69.5 111.5Z" fill="#252930"/>
<path fill-rule="evenodd" clip-rule="evenodd" d="M69.5 139.167C107.47 139.167 138.25 108.2 138.25 70.0002C138.25 31.8005 107.47 0.833496 69.5 0.833496C31.5304 0.833496 0.75 31.8005 0.75 70.0002C0.75 108.2 31.5304 139.167 69.5 139.167ZM69.5 125.333C99.8757 125.333 124.5 100.56 124.5 70.0002C124.5 39.4404 99.8757 14.6668 69.5 14.6668C39.1243 14.6668 14.5 39.4404 14.5 70.0002C14.5 100.56 39.1243 125.333 69.5 125.333Z" fill="#252930"/>
</svg>
