<svg width="139" height="140" viewBox="0 0 139 140" fill="none" xmlns="http://www.w3.org/2000/svg">
<path d="M69.5 56.1668C73.297 56.1668 76.375 59.2635 76.375 63.0835V104.583C76.375 108.403 73.297 111.5 69.5 111.5C65.703 111.5 62.625 108.403 62.625 104.583V63.0835C62.625 59.2635 65.703 56.1668 69.5 56.1668Z" fill="#252930"/>
<path d="M69.5 42.3335C73.297 42.3335 76.375 39.2368 76.375 35.4168C76.375 31.5969 73.297 28.5002 69.5 28.5002C65.703 28.5002 62.625 31.5969 62.625 35.4168C62.625 39.2368 65.703 42.3335 69.5 42.3335Z" fill="#252930"/>
<path fill-rule="evenodd" clip-rule="evenodd" d="M69.5 139.167C107.47 139.167 138.25 108.2 138.25 70.0002C138.25 31.8005 107.47 0.833496 69.5 0.833496C31.5304 0.833496 0.75 31.8005 0.75 70.0002C0.75 108.2 31.5304 139.167 69.5 139.167ZM69.5 125.333C99.8757 125.333 124.5 100.56 124.5 70.0002C124.5 39.4404 99.8757 14.6668 69.5 14.6668C39.1243 14.6668 14.5 39.4404 14.5 70.0002C14.5 100.56 39.1243 125.333 69.5 125.333Z" fill="#252930"/>
</svg>
