<svg width="137" height="138" viewBox="0 0 137 138" fill="none" xmlns="http://www.w3.org/2000/svg">
<path d="M68.5 13.7998C38.2708 13.7998 13.7 38.6326 13.7 69.3465C13.7 78.0564 15.6729 86.2789 19.183 93.5974C20.8286 97.0287 19.4012 101.154 15.9947 102.812C12.5883 104.469 8.49272 103.032 6.84705 99.6004C2.45777 90.4485 0 80.1778 0 69.3465C0 31.0838 30.6325 0 68.5 0C106.367 0 137 31.0838 137 69.3465C137 80.1778 134.542 90.4485 130.153 99.6004C128.507 103.032 124.412 104.469 121.005 102.812C117.599 101.154 116.171 97.0287 117.817 93.5975C121.327 86.2789 123.3 78.0564 123.3 69.3465C123.3 38.6326 98.7292 13.7998 68.5 13.7998Z" fill="#252930"/>
<path fill-rule="evenodd" clip-rule="evenodd" d="M85.7038 98.8374C95.8977 92.861 102.75 81.7362 102.75 68.9992C102.75 49.9456 87.4157 34.4996 68.5 34.4996C49.5842 34.4996 34.25 49.9456 34.25 68.9992C34.25 81.7362 41.1023 92.861 51.2962 98.8374C40.8113 101.699 32.79 106.914 26.9719 112.156C22.6714 116.03 19.5821 119.907 17.552 122.842C16.5344 124.313 15.7748 125.559 15.2552 126.467C14.9952 126.921 14.7946 127.292 14.6512 127.566C14.5794 127.703 14.5219 127.815 14.4784 127.902L14.4235 128.012L14.4039 128.052L14.3959 128.068L14.3925 128.075C14.3909 128.079 14.3893 128.082 20.55 131.099L14.3893 128.082C12.7354 131.509 14.1528 135.638 17.5552 137.304C20.9484 138.966 25.0344 137.55 26.6971 134.143L26.701 134.135L26.7649 134.011C26.8335 133.881 26.9529 133.659 27.1247 133.358C27.4688 132.757 28.0204 131.847 28.7925 130.731C30.342 128.491 32.747 125.467 36.1052 122.442C42.7558 116.45 53.1749 110.399 68.5 110.399C83.8251 110.399 94.2442 116.45 100.895 122.442C104.253 125.467 106.658 128.491 108.207 130.731C108.98 131.847 109.531 132.757 109.875 133.358C110.047 133.659 110.166 133.881 110.235 134.011L110.299 134.135L110.303 134.143C111.965 137.55 116.052 138.966 119.445 137.304C122.847 135.638 124.265 131.509 122.611 128.082L116.45 131.099C122.611 128.082 122.609 128.079 122.608 128.075L122.596 128.052L122.576 128.012L122.522 127.902C122.478 127.815 122.421 127.703 122.349 127.566C122.205 127.292 122.005 126.921 121.745 126.467C121.225 125.559 120.466 124.313 119.448 122.842C117.418 119.907 114.329 116.03 110.028 112.156C104.21 106.914 96.1887 101.699 85.7038 98.8374ZM68.5 89.699C79.8495 89.699 89.05 80.4314 89.05 68.9992C89.05 57.5671 79.8495 48.2995 68.5 48.2995C57.1505 48.2995 47.95 57.5671 47.95 68.9992C47.95 80.4314 57.1505 89.699 68.5 89.699Z" fill="#252930"/>
</svg>
