<svg width="62" height="62" viewBox="0 0 62 62" fill="none" xmlns="http://www.w3.org/2000/svg">
<path fill-rule="evenodd" clip-rule="evenodd" d="M37.3491 41.0026C34.3815 42.8498 30.8779 43.9168 27.125 43.9168C16.4245 43.9168 7.75 35.2423 7.75 24.5418C7.75 13.8412 16.4245 5.16675 27.125 5.16675C37.8255 5.16675 46.5 13.8412 46.5 24.5418C46.5 29.6198 44.5464 34.2416 41.3498 37.6965L56.0767 52.4234C57.0856 53.4323 57.0856 55.0679 56.0767 56.0768C55.0678 57.0856 53.4322 57.0856 52.4233 56.0768L37.3491 41.0026ZM41.3333 24.5418C41.3333 32.3888 34.9721 38.7501 27.125 38.7501C19.278 38.7501 12.9167 32.3888 12.9167 24.5418C12.9167 16.6947 19.278 10.3334 27.125 10.3334C34.9721 10.3334 41.3333 16.6947 41.3333 24.5418Z" fill="#252930"/>
</svg>
