<svg width="55" height="52" viewBox="0 0 55 52" fill="none" xmlns="http://www.w3.org/2000/svg">
<path fill-rule="evenodd" clip-rule="evenodd" d="M32.9636 36.0026C29.7088 37.8498 25.866 38.9168 21.75 38.9168C10.014 38.9168 0.5 30.2423 0.5 19.5417C0.5 8.84123 10.014 0.166748 21.75 0.166748C33.4861 0.166748 43 8.84123 43 19.5417C43 24.6198 40.8574 29.2416 37.3514 32.6965L53.5035 47.4234C54.61 48.4322 54.61 50.0679 53.5035 51.0768C52.397 52.0856 50.603 52.0856 49.4965 51.0768L32.9636 36.0026ZM37.3333 19.5417C37.3333 27.3888 30.3564 33.7501 21.75 33.7501C13.1436 33.7501 6.16667 27.3888 6.16667 19.5417C6.16667 11.6947 13.1436 5.33342 21.75 5.33342C30.3564 5.33342 37.3333 11.6947 37.3333 19.5417Z" fill="#252930"/>
</svg>
